<svg width="358" height="156" viewBox="0 0 358 156" fill="none" xmlns="http://www.w3.org/2000/svg">
<g filter="url(#filter0_d_1_4)">
<path d="M42.4688 69.3906H12.0781V57.125H42.4688C48.3542 57.125 53.1198 56.1875 56.7656 54.3125C60.4115 52.4375 63.0677 49.8333 64.7344 46.5C66.4531 43.1667 67.3125 39.3646 67.3125 35.0938C67.3125 31.1875 66.4531 27.5156 64.7344 24.0781C63.0677 20.6406 60.4115 17.8802 56.7656 15.7969C53.1198 13.6615 48.3542 12.5938 42.4688 12.5938H15.5938V114H0.515625V0.25H42.4688C51.0625 0.25 58.3281 1.73438 64.2656 4.70312C70.2031 7.67188 74.7083 11.7865 77.7812 17.0469C80.8542 22.2552 82.3906 28.2188 82.3906 34.9375C82.3906 42.2292 80.8542 48.4531 77.7812 53.6094C74.7083 58.7656 70.2031 62.6979 64.2656 65.4062C58.3281 68.0625 51.0625 69.3906 42.4688 69.3906ZM94.3438 72.6719V70.875C94.3438 64.7812 95.2292 59.1302 97 53.9219C98.7708 48.6615 101.323 44.1042 104.656 40.25C107.99 36.3438 112.026 33.3229 116.766 31.1875C121.505 29 126.818 27.9062 132.703 27.9062C138.641 27.9062 143.979 29 148.719 31.1875C153.51 33.3229 157.573 36.3438 160.906 40.25C164.292 44.1042 166.87 48.6615 168.641 53.9219C170.411 59.1302 171.297 64.7812 171.297 70.875V72.6719C171.297 78.7656 170.411 84.4167 168.641 89.625C166.87 94.8333 164.292 99.3906 160.906 103.297C157.573 107.151 153.536 110.172 148.797 112.359C144.109 114.495 138.797 115.562 132.859 115.562C126.922 115.562 121.583 114.495 116.844 112.359C112.104 110.172 108.042 107.151 104.656 103.297C101.323 99.3906 98.7708 94.8333 97 89.625C95.2292 84.4167 94.3438 78.7656 94.3438 72.6719ZM108.797 70.875V72.6719C108.797 76.8906 109.292 80.875 110.281 84.625C111.271 88.3229 112.755 91.6042 114.734 94.4688C116.766 97.3333 119.292 99.599 122.312 101.266C125.333 102.88 128.849 103.688 132.859 103.688C136.818 103.688 140.281 102.88 143.25 101.266C146.271 99.599 148.771 97.3333 150.75 94.4688C152.729 91.6042 154.214 88.3229 155.203 84.625C156.245 80.875 156.766 76.8906 156.766 72.6719V70.875C156.766 66.7083 156.245 62.776 155.203 59.0781C154.214 55.3281 152.703 52.0208 150.672 49.1562C148.693 46.2396 146.193 43.9479 143.172 42.2812C140.203 40.6146 136.714 39.7812 132.703 39.7812C128.745 39.7812 125.255 40.6146 122.234 42.2812C119.266 43.9479 116.766 46.2396 114.734 49.1562C112.755 52.0208 111.271 55.3281 110.281 59.0781C109.292 62.776 108.797 66.7083 108.797 70.875ZM203.875 47.5156V114H189.422V29.4688H203.094L203.875 47.5156ZM200.438 68.5312L194.422 68.2969C194.474 62.5156 195.333 57.1771 197 52.2812C198.667 47.3333 201.01 43.0365 204.031 39.3906C207.052 35.7448 210.646 32.9323 214.812 30.9531C219.031 28.9219 223.693 27.9062 228.797 27.9062C232.964 27.9062 236.714 28.4792 240.047 29.625C243.38 30.7188 246.219 32.4896 248.562 34.9375C250.958 37.3854 252.781 40.5625 254.031 44.4688C255.281 48.3229 255.906 53.0365 255.906 58.6094V114H241.375V58.4531C241.375 54.026 240.724 50.4844 239.422 47.8281C238.12 45.1198 236.219 43.1667 233.719 41.9688C231.219 40.7188 228.146 40.0938 224.5 40.0938C220.906 40.0938 217.625 40.849 214.656 42.3594C211.74 43.8698 209.214 45.9531 207.078 48.6094C204.995 51.2656 203.354 54.3125 202.156 57.75C201.01 61.1354 200.438 64.7292 200.438 68.5312ZM332.625 29.4688H345.75V112.203C345.75 119.651 344.24 126.005 341.219 131.266C338.198 136.526 333.979 140.51 328.562 143.219C323.198 145.979 317 147.359 309.969 147.359C307.052 147.359 303.615 146.891 299.656 145.953C295.75 145.068 291.896 143.531 288.094 141.344C284.344 139.208 281.193 136.318 278.641 132.672L286.219 124.078C289.76 128.349 293.458 131.318 297.312 132.984C301.219 134.651 305.073 135.484 308.875 135.484C313.458 135.484 317.417 134.625 320.75 132.906C324.083 131.188 326.661 128.635 328.484 125.25C330.359 121.917 331.297 117.802 331.297 112.906V48.0625L332.625 29.4688ZM274.422 72.6719V71.0312C274.422 64.5729 275.177 58.7135 276.688 53.4531C278.25 48.1406 280.464 43.5833 283.328 39.7812C286.245 35.9792 289.76 33.0625 293.875 31.0312C297.99 28.9479 302.625 27.9062 307.781 27.9062C313.094 27.9062 317.729 28.8438 321.688 30.7188C325.698 32.5417 329.083 35.224 331.844 38.7656C334.656 42.2552 336.87 46.474 338.484 51.4219C340.099 56.3698 341.219 61.9688 341.844 68.2188V75.4062C341.271 81.6042 340.151 87.1771 338.484 92.125C336.87 97.0729 334.656 101.292 331.844 104.781C329.083 108.271 325.698 110.953 321.688 112.828C317.677 114.651 312.99 115.562 307.625 115.562C302.573 115.562 297.99 114.495 293.875 112.359C289.812 110.224 286.323 107.229 283.406 103.375C280.49 99.5208 278.25 94.9896 276.688 89.7812C275.177 84.5208 274.422 78.8177 274.422 72.6719ZM288.875 71.0312V72.6719C288.875 76.8906 289.292 80.849 290.125 84.5469C291.01 88.2448 292.339 91.5 294.109 94.3125C295.932 97.125 298.25 99.3385 301.062 100.953C303.875 102.516 307.234 103.297 311.141 103.297C315.932 103.297 319.891 102.281 323.016 100.25C326.141 98.2188 328.615 95.5365 330.438 92.2031C332.312 88.8698 333.771 85.25 334.812 81.3438V62.5156C334.24 59.651 333.354 56.8906 332.156 54.2344C331.01 51.526 329.5 49.1302 327.625 47.0469C325.802 44.9115 323.536 43.2188 320.828 41.9688C318.12 40.7188 314.943 40.0938 311.297 40.0938C307.339 40.0938 303.927 40.9271 301.062 42.5938C298.25 44.2083 295.932 46.4479 294.109 49.3125C292.339 52.125 291.01 55.4062 290.125 59.1562C289.292 62.8542 288.875 66.8125 288.875 71.0312Z" fill="white"/>
</g>
<defs>
<filter id="filter0_d_1_4" x="0.515625" y="0.25" width="357.234" height="155.109" filterUnits="userSpaceOnUse" color-interpolation-filters="sRGB">
<feFlood flood-opacity="0" result="BackgroundImageFix"/>
<feColorMatrix in="SourceAlpha" type="matrix" values="0 0 0 0 0 0 0 0 0 0 0 0 0 0 0 0 0 0 127 0" result="hardAlpha"/>
<feOffset dx="8" dy="4"/>
<feGaussianBlur stdDeviation="2"/>
<feComposite in2="hardAlpha" operator="out"/>
<feColorMatrix type="matrix" values="0 0 0 0 0 0 0 0 0 0 0 0 0 0 0 0 0 0 0.25 0"/>
<feBlend mode="normal" in2="BackgroundImageFix" result="effect1_dropShadow_1_4"/>
<feBlend mode="normal" in="SourceGraphic" in2="effect1_dropShadow_1_4" result="shape"/>
</filter>
</defs>
</svg>
